Coordinates
version=1
nRows=14
nColumns=36
inDegrees=yes

Units are S.I. units (second, meters, Newtons, ...)
If the header above contains a line with 'inDegrees', this indicates whether rotational values are in degrees (yes) or radians (no).

endheader
time	pelvis_tilt	pelvis_list	pelvis_rotation	pelvis_tx	pelvis_ty	pelvis_tz	hip_flexion_r	hip_adduction_r	hip_rotation_r	knee_angle_r	knee_angle_r_beta	ankle_angle_r	subtalar_angle_r	mtp_angle_r	hip_flexion_l	hip_adduction_l	hip_rotation_l	knee_angle_l	knee_angle_l_beta	ankle_angle_l	subtalar_angle_l	mtp_angle_l	lumbar_extension	lumbar_bending	lumbar_rotation	arm_flex_r	arm_add_r	arm_rot_r	elbow_flex_r	pro_sup_r	arm_flex_l	arm_add_l	arm_rot_l	elbow_flex_l	pro_sup_l
      1.75000000	    -12.85466441	      0.50227869	      2.60952113	      0.81415742	      0.94611763	      0.05606138	     30.61009102	    -13.31323479	     -9.10940029	     24.04712156	      0.41970145	     13.33332149	      6.07326625	     -7.49996844	     29.38635424	    -13.21102044	    -18.59042831	     26.81861677	      0.46807316	     11.98354524	     10.12869094	     -7.49996844	    -18.04844387	     -1.45083838	      7.04498227	     54.31331359	     17.54269427	     67.22552199	    127.06406872	     92.60165437	     74.41683402	     23.10218182	     73.68539918	    124.60863288	     69.78826227
      1.76666670	    -12.67924893	      0.21172251	      2.86996779	      0.81293832	      0.94937174	      0.05558194	     29.05964740	    -12.72726889	     -9.03865457	     21.78071111	      0.38014512	     12.67371432	      5.47809947	     -7.49996891	     28.49321152	    -12.87279704	    -17.70226533	     25.21952624	      0.44016377	     11.38915310	      9.37795737	     -7.49996891	    -16.91024299	     -0.98388842	      6.96541404	     53.89826202	     17.75696003	     66.30196243	    127.42763569	     92.58605615	     74.17701430	     22.90151317	     72.38547647	    124.32127196	     69.58235656
      1.78333330	    -12.21781336	     -0.12283200	      3.25355256	      0.81792631	      0.95491897	      0.05215899	     26.87988104	    -12.11903011	     -9.01650277	     19.16826278	      0.33454930	     11.48742775	      4.82260566	     -7.49996963	     27.16806692	    -12.47341778	    -16.36613126	     23.43742258	      0.40906019	     10.45987584	      8.46065574	     -7.49996963	    -15.87592974	     -0.25067583	      7.05168183	     53.70925479	     17.68474541	     65.64212949	    127.24075140	     92.51415981	     73.20476405	     23.33922185	     72.24472800	    124.16131362	     69.26007633
      1.80000000	    -12.08829064	     -0.22997143	      3.35252550	      0.82161472	      0.95999538	      0.05496511	     25.16561914	    -11.52301268	     -8.71382984	     16.66658917	      0.29088686	     10.45300933	      4.69403649	     -7.49996996	     25.80547744	    -11.97593634	    -15.19800468	     21.25954009	      0.37104897	      9.65862150	      7.91838537	     -7.49996996	    -14.51993849	     -0.07621459	      7.05706972	     52.80085795	     17.80866625	     65.51497846	    127.25274970	     92.48572470	     72.44198761	     23.79646040	     72.42567159	    124.28960349	     69.06893778
      1.81666670	    -11.70654987	     -0.24832301	      3.31363397	      0.82192621	      0.96226558	      0.05530273	     23.57640843	    -11.00459526	     -8.12555960	     14.71530735	      0.25683056	      9.50018939	      4.02219163	     -7.49997046	     24.03587685	    -11.37441004	    -13.55623595	     18.79926056	      0.32810899	      8.56737703	      6.32546859	     -7.49997046	    -13.71101312	      0.05515318	      7.06942318	     52.13498198	     17.73676307	     64.68594514	    127.47904832	     92.03907170	     72.36649469	     24.20345594	     71.88119643	    124.15049161	     68.25491684
      1.83333330	    -11.53437393	     -0.34030250	      3.09811567	      0.82600191	      0.95984392	      0.05901133	     22.50119772	    -10.39950851	     -7.59839642	     13.34755157	      0.23295872	      9.09128053	      3.58952375	     -7.49997087	     22.83746942	    -11.22029531	    -12.40154790	     17.20921909	      0.30035753	      8.24582080	      5.56412336	     -7.49997087	    -12.67005440	      0.09695159	      7.14518030	     51.07962338	     17.89168867	     64.43893155	    127.61335517	     91.98781396	     71.62600761	     24.32182673	     71.74699594	    124.11060132	     67.97940307
      1.85000000	    -11.02599036	     -0.40629348	      2.97380102	      0.83511167	      0.96373953	      0.05907807	     20.96693488	     -9.87495438	     -6.82526209	     12.14679922	      0.21200164	      8.44663681	      2.37736310	     -7.49997188	     21.02521625	    -11.00451302	    -11.25423933	     15.34471103	      0.26781573	      7.34837518	      3.87836706	     -7.49997188	    -11.83991893	      0.27033456	      7.28574017	     49.69461131	     18.28277424	     64.13407640	    127.08410033	     91.96543970	     70.41455415	     24.21858161	     71.68876460	    124.02071786	     67.07822887
      1.86666670	    -10.61578452	     -0.37075819	      2.58144036	      0.84392577	      0.96259649	      0.05376825	     19.55688712	     -9.68730512	     -6.45265637	     11.12689894	      0.19420102	      8.28035564	      2.14758530	     -7.49997221	     19.22381279	    -10.75594570	    -11.12334006	     13.86978743	      0.24207346	      7.37118866	      3.34898015	     -7.49997221	    -10.66867636	      0.56366632	      7.58069357	     48.24424358	     18.08631191	     64.06196252	    126.78289001	     91.93667161	     68.27614353	     24.37310747	     72.05990940	    124.16089235	     66.80513488
      1.88333330	    -10.33977832	     -0.44674519	      2.32170840	      0.85299739	      0.96364094	      0.05426865	     18.10369011	     -9.35997308	     -5.95625114	     10.02435504	      0.17495800	      8.19377984	      1.66824474	     -7.49997253	     17.49871731	    -10.55195028	    -10.90346594	     12.34139258	      0.21539793	      7.53893797	      2.85349959	     -7.49997253	     -9.14936059	      0.96439715	      7.86088166	     46.51965852	     17.86985866	     64.05873255	    126.49030734	     91.08933420	     65.95521750	     24.04912097	     72.27836806	    124.38414536	     66.20060088
      1.90000000	     -9.61217465	     -0.54554923	      2.36948921	      0.85544258	      0.96550174	      0.05681390	     15.80543731	     -8.92707631	     -5.17815457	      8.15189783	      0.14227746	      7.76183317	      0.40153771	     -7.49997285	     15.30562980	    -10.31362320	    -10.39192307	     10.48842413	      0.18305753	      7.20779566	      1.99976337	     -7.49997285	     -8.54584963	      1.42483689	      8.17173886	     45.78967127	     17.73111378	     63.72879976	    125.51914178	     91.04220716	     64.70666131	     23.86502444	     72.18668269	    124.21770187	     65.94803260
      1.91666670	     -8.82001783	     -0.64675001	      2.45626597	      0.86438086	      0.96186128	      0.05108463	     13.45580190	     -8.64380277	     -3.73865626	      6.32433705	      0.11038050	      6.96922518	     -1.97773947	     -7.49997716	     12.95672485	     -9.99991408	     -9.28335495	      8.59530760	      0.15001642	      7.01135730	      0.80625356	     -7.49997716	     -7.82772496	      2.00944758	      8.18360981	     45.15980152	     17.66628921	     63.51337912	    125.03635674	     88.92465026	     63.73885014	     23.70154358	     71.47330827	    124.26496074	     64.73205259
      1.93333330	     -8.34674182	     -0.64105166	      2.50709907	      0.86690790	      0.96619530	      0.05372579	     11.55364113	     -8.39443250	     -2.94480322	      4.64143724	      0.08100836	      6.57657807	     -3.18744789	     -7.49997771	     10.84338300	     -9.66089676	     -8.45840568	      6.36742735	      0.11113257	      6.68397363	      0.23677321	     -7.49997771	     -7.10745998	      2.16445314	      8.26346012	     44.47634833	     17.62296113	     63.78384011	    124.82685396	     89.08809900	     62.87016301	     23.40605442	     71.20395562	    123.98031527	     64.56176690
      1.95000000	     -7.94727815	     -0.73682839	      2.61347273	      0.86645646	      0.96395864	      0.05393211	     10.09123379	     -8.13512388	     -2.09148960	      3.32010245	      0.05794672	      6.28248438	     -4.70550230	     -7.49997829	      9.20744862	     -9.51012668	     -7.56897451	      4.59178523	      0.08014177	      6.45552590	     -0.37950883	     -7.49997829	     -6.53908468	      2.40553784	      8.02139344	     44.07193935	     17.84604000	     63.99584583	    124.44416843	     89.22484033	     62.56386772	     23.02739409	     70.37652304	    123.66337325	     64.45307534
      1.96666670	     -7.83377217	     -0.82174378	      2.74920458	      0.86998859	      0.96499444	      0.05092205	      9.23197490	     -8.02427610	     -1.62490933	      2.43511418	      0.04250076	      6.05426909	     -5.57673563	     -7.49998129	      8.14319699	     -9.36565361	     -6.75233238	      3.22822808	      0.05634321	      6.16922380	     -0.82880033	     -7.49998129	     -5.86730951	      2.65194444	      7.70512511	     43.47392594	     17.83835355	     64.62242766	    124.58825939	     87.22625436	     61.84137895	     22.85299180	     70.45009694	    123.74872507	     64.07362387
